# File created by Blade
# Date/Time:  Wed Jan 21 18:02:19 2015
# Frame Rate: 120.000 fps
#------------------------------------------------------
:FULLY-SPECIFIED
:DEGREES
428
root 19.624733 35.513575 -19.493659 -174.073354 4.038148 -179.870857
Spine -4.322964 1.318419 -1.539748
Head -3.932982 -2.243732 2.773376
LeftShoulder -3.730631 -21.569853 -3.523392
LeftArm -10.553272 17.630606 -77.051299
LeftForeArm -1.231841 -0.000000 3.330642
LeftHand -0.924395 -0.000000 -0.762776
LeftHandThumb1 -26.253704 0.000000 33.147579
RightShoulder -6.018766 -11.802711 9.458662
RightArm 21.536271 -20.249592 62.255009
RightForeArm -20.397137 -0.000000 26.099209
RightHand 0.312079 -0.000000 5.496553
RightHandThumb1 -24.326973 -0.000000 -32.862282
LeftUpLeg -7.732055 5.285651 -8.107918
LeftLeg 7.355587 -0.000000 -0.000000
LeftFoot -22.360635 26.532328 -8.577545
LeftToeBase 22.406200 -0.000000 -0.000000
RightUpLeg -21.386087 3.589022 5.092193
RightLeg 38.210156 -0.000000 -0.000000
RightFoot -36.199413 -29.293335 23.138577
RightToeBase 13.678941 -0.000000 -0.000000
429
root 19.580928 35.503028 -19.474181 -174.086749 4.058031 -180.000720
Spine -4.254805 1.360602 -1.706981
Head -3.993841 -2.215743 2.766891
LeftShoulder -3.755755 -21.579765 -3.504488
LeftArm -10.740493 17.389017 -76.938962
LeftForeArm -1.478791 -0.000000 3.237463
LeftHand -1.015256 0.000000 -0.735535
LeftHandThumb1 -26.253704 0.000000 33.147579
RightShoulder -5.937397 -11.715406 9.424097
RightArm 21.754980 -20.702551 62.111057
RightForeArm -20.327264 -0.000000 26.186142
RightHand 0.315020 -0.000000 5.403834
RightHandThumb1 -24.326973 -0.000000 -32.862282
LeftUpLeg -7.833239 5.197368 -8.304109
LeftLeg 7.498003 -0.000000 -0.000000
LeftFoot -22.392054 26.557637 -8.617557
LeftToeBase 22.333261 -0.000000 -0.000000
RightUpLeg -21.132189 3.625527 5.065043
RightLeg 38.675755 -0.000000 -0.000000
RightFoot -35.963727 -29.017669 23.031607
RightToeBase 13.829474 -0.000000 -0.000000
430
root 19.540644 35.492731 -19.452010 -174.060183 4.080426 -180.094034
Spine -4.222981 1.452388 -1.828188
Head -4.053544 -2.272869 2.684967
LeftShoulder -3.771284 -21.533177 -3.529018
LeftArm -10.859669 17.268386 -76.800336
LeftForeArm -1.756528 -0.000000 3.204647
LeftHand -1.172371 0.000000 -0.603336
LeftHandThumb1 -26.253704 0.000000 33.147579
RightShoulder -5.840125 -11.610409 9.372716
RightArm 21.833400 -20.633032 62.250384
RightForeArm -21.037319 -0.000000 26.233663
RightHand 0.593131 -0.000000 5.931748
RightHandThumb1 -24.326973 -0.000000 -32.862282
LeftUpLeg -8.022963 5.288669 -8.470114
LeftLeg 7.735375 -0.000000 -0.000000
LeftFoot -22.454493 26.457781 -8.631522
LeftToeBase 22.189995 -0.000000 -0.000000
RightUpLeg -20.876344 3.624965 5.069888
RightLeg 39.019623 -0.000000 -0.000000
RightFoot -35.563763 -28.672548 22.994333
RightToeBase 13.599435 -0.000000 -0.000000
431
root 19.497496 35.481096 -19.432153 -174.027567 4.120452 -180.227441
Spine -4.217136 1.571533 -2.005487
Head -4.124829 -2.244840 2.679634
LeftShoulder -3.738215 -21.531263 -3.535666
LeftArm -11.051875 17.086416 -76.688376
LeftForeArm -2.004534 0.000000 3.123643
LeftHand -1.080154 -0.000000 -0.476174
LeftHandThumb1 -26.253704 0.000000 33.147579
RightShoulder -5.829428 -11.563333 9.363068
RightArm 22.119510 -21.044363 62.071525
RightForeArm -21.100866 0.000000 26.197314
RightHand 0.950375 -0.000000 6.032483
RightHandThumb1 -24.326973 -0.000000 -32.862282
LeftUpLeg -8.228039 5.428715 -8.689023
LeftLeg 7.981379 -0.000000 -0.000000
LeftFoot -22.490812 26.303487 -8.649892
LeftToeBase 22.118149 -0.000000 -0.000000
RightUpLeg -20.635117 3.724902 5.014740
RightLeg 39.346175 -0.000000 -0.000000
RightFoot -35.327806 -28.453198 23.078161
RightToeBase 13.733187 -0.000000 -0.000000
432
root 19.461960 35.468431 -19.410402 -173.988151 4.487577 -180.345961
Spine -4.217543 1.978011 -2.237449
Head -4.213497 -2.237550 2.705746
LeftShoulder -3.792728 -21.454618 -3.485639
LeftArm -11.127665 16.907462 -76.538014
LeftForeArm -2.226419 -0.000000 3.054158
LeftHand -1.046257 0.000000 -0.340099
LeftHandThumb1 -26.253704 0.000000 33.147579
RightShoulder -5.745376 -11.435569 9.329956
RightArm 22.250883 -21.311747 62.102621
RightForeArm -21.253114 -0.000000 26.212277
RightHand 0.991239 0.000000 6.296328
RightHandThumb1 -24.326973 -0.000000 -32.862282
LeftUpLeg -8.440844 5.505936 -8.882114
LeftLeg 8.225858 -0.000000 -0.000000
LeftFoot -22.649951 26.456847 -8.827740
LeftToeBase 22.221444 -0.000000 -0.000000
RightUpLeg -20.405444 4.192659 4.941062
RightLeg 39.639975 -0.000000 -0.000000
RightFoot -35.025222 -28.265934 23.112234
RightToeBase 13.552327 -0.000000 -0.000000
433
root 19.426773 35.457235 -19.389886 -173.938139 4.846657 -180.442156
Spine -4.248329 2.410151 -2.448379
Head -4.261731 -2.324025 2.725966
LeftShoulder -3.788541 -21.390155 -3.459055
LeftArm -11.256410 16.701951 -76.388682
LeftForeArm -2.434571 -0.000000 3.000756
LeftHand -0.903332 0.000000 -0.322492
LeftHandThumb1 -26.253704 0.000000 33.147579
RightShoulder -5.674676 -11.378210 9.347062
RightArm 22.484600 -21.652799 61.970132
RightForeArm -21.258131 0.000000 26.194234
RightHand 1.201861 -0.000000 6.581948
RightHandThumb1 -24.326973 -0.000000 -32.862282
LeftUpLeg -8.656144 5.782333 -9.066891
LeftLeg 8.450339 -0.000000 -0.000000
LeftFoot -22.747247 26.437406 -8.886785
LeftToeBase 22.174075 -0.000000 -0.000000
RightUpLeg -20.106213 4.542260 4.884073
RightLeg 39.723382 -0.000000 -0.000000
RightFoot -34.743882 -28.166293 22.978848
RightToeBase 13.803267 -0.000000 -0.000000
434
root 19.392866 35.447483 -19.384709 -173.954217 4.960714 -180.511440
Spine -4.231298 2.614601 -2.557361
Head -4.264777 -2.377124 2.675411
LeftShoulder -3.771804 -21.345948 -3.512433
LeftArm -11.448586 16.559790 -76.232543
LeftForeArm -2.563438 -0.000000 3.003833
LeftHand -0.936049 -0.000000 -0.200193
LeftHandThumb1 -26.253704 0.000000 33.147579
RightShoulder -5.603140 -11.354723 9.306479
RightArm 22.666895 -21.928954 61.925114
RightForeArm -21.375917 -0.000000 26.189436
RightHand 1.347780 0.000000 6.773040
RightHandThumb1 -24.326973 -0.000000 -32.862282
LeftUpLeg -8.756731 5.605922 -9.175780
LeftLeg 8.659555 -0.000000 -0.000000
LeftFoot -22.848442 26.600614 -9.026656
LeftToeBase 22.002669 -0.000000 -0.000000
RightUpLeg -19.639608 4.505364 4.872709
RightLeg 39.653406 -0.000000 -0.000000
RightFoot -34.360173 -28.027266 22.820579
RightToeBase 13.587936 -0.000000 -0.000000
